<mxfile host="Electron" agent="Mozilla/5.0 (Windows NT 10.0; Win64; x64) AppleWebKit/537.36 (KHTML, like Gecko) draw.io/27.0.9 Chrome/134.0.6998.205 Electron/35.4.0 Safari/537.36" version="27.0.9">
  <diagram name="第 1 页" id="eWEsgfUl7EyYSQMKutR3">
    <mxGraphModel dx="335" dy="396" grid="1" gridSize="10" guides="1" tooltips="1" connect="1" arrows="1" fold="1" page="1" pageScale="1" pageWidth="827" pageHeight="1169" math="0" shadow="0">
      <root>
        <mxCell id="0" />
        <mxCell id="1" parent="0" />
        <mxCell id="CsAwZMaQeIfFwaJ9vQzm-1" value="" style="rounded=0;whiteSpace=wrap;html=1;" parent="1" vertex="1">
          <mxGeometry x="80" y="230" width="220" height="90" as="geometry" />
        </mxCell>
        <mxCell id="CsAwZMaQeIfFwaJ9vQzm-3" value="Inject" style="rounded=1;whiteSpace=wrap;html=1;" parent="1" vertex="1">
          <mxGeometry x="162.5" y="290" width="50" height="20" as="geometry" />
        </mxCell>
        <mxCell id="CsAwZMaQeIfFwaJ9vQzm-17" value="method" style="rounded=1;whiteSpace=wrap;html=1;" parent="1" vertex="1">
          <mxGeometry x="85" y="240" width="55" height="20" as="geometry" />
        </mxCell>
        <mxCell id="CsAwZMaQeIfFwaJ9vQzm-21" value="type" style="rounded=1;whiteSpace=wrap;html=1;" parent="1" vertex="1">
          <mxGeometry x="160" y="240" width="55" height="20" as="geometry" />
        </mxCell>
        <mxCell id="CsAwZMaQeIfFwaJ9vQzm-22" value="args" style="rounded=1;whiteSpace=wrap;html=1;" parent="1" vertex="1">
          <mxGeometry x="240" y="240" width="55" height="20" as="geometry" />
        </mxCell>
        <mxCell id="fUkW3dpKAJIHLPX9Us1H-20" value="" style="edgeStyle=orthogonalEdgeStyle;rounded=0;orthogonalLoop=1;jettySize=auto;html=1;" edge="1" parent="1" source="fUkW3dpKAJIHLPX9Us1H-1" target="fUkW3dpKAJIHLPX9Us1H-19">
          <mxGeometry relative="1" as="geometry">
            <Array as="points">
              <mxPoint x="140" y="380" />
              <mxPoint x="140" y="350" />
            </Array>
          </mxGeometry>
        </mxCell>
        <mxCell id="fUkW3dpKAJIHLPX9Us1H-1" value="remote thread" style="rounded=0;whiteSpace=wrap;html=1;" vertex="1" parent="1">
          <mxGeometry x="40" y="370" width="80" height="20" as="geometry" />
        </mxCell>
        <mxCell id="fUkW3dpKAJIHLPX9Us1H-23" value="" style="edgeStyle=orthogonalEdgeStyle;rounded=0;orthogonalLoop=1;jettySize=auto;html=1;" edge="1" parent="1" source="fUkW3dpKAJIHLPX9Us1H-3" target="fUkW3dpKAJIHLPX9Us1H-17">
          <mxGeometry relative="1" as="geometry" />
        </mxCell>
        <mxCell id="fUkW3dpKAJIHLPX9Us1H-3" value="apc" style="rounded=0;whiteSpace=wrap;html=1;" vertex="1" parent="1">
          <mxGeometry x="40" y="410" width="80" height="20" as="geometry" />
        </mxCell>
        <mxCell id="fUkW3dpKAJIHLPX9Us1H-10" value="" style="edgeStyle=orthogonalEdgeStyle;rounded=0;orthogonalLoop=1;jettySize=auto;html=1;entryX=0;entryY=0.5;entryDx=0;entryDy=0;" edge="1" parent="1" source="fUkW3dpKAJIHLPX9Us1H-6" target="fUkW3dpKAJIHLPX9Us1H-8">
          <mxGeometry relative="1" as="geometry" />
        </mxCell>
        <mxCell id="fUkW3dpKAJIHLPX9Us1H-6" value="reflect" style="rounded=0;whiteSpace=wrap;html=1;" vertex="1" parent="1">
          <mxGeometry x="40" y="460" width="80" height="20" as="geometry" />
        </mxCell>
        <mxCell id="fUkW3dpKAJIHLPX9Us1H-8" value="dll file" style="rounded=0;whiteSpace=wrap;html=1;" vertex="1" parent="1">
          <mxGeometry x="160" y="460" width="120" height="20" as="geometry" />
        </mxCell>
        <mxCell id="fUkW3dpKAJIHLPX9Us1H-9" value="url" style="rounded=0;whiteSpace=wrap;html=1;" vertex="1" parent="1">
          <mxGeometry x="160" y="500" width="120" height="20" as="geometry" />
        </mxCell>
        <mxCell id="fUkW3dpKAJIHLPX9Us1H-11" value="" style="endArrow=classic;html=1;rounded=0;exitX=1;exitY=0.5;exitDx=0;exitDy=0;entryX=0;entryY=0.5;entryDx=0;entryDy=0;" edge="1" parent="1" source="fUkW3dpKAJIHLPX9Us1H-6" target="fUkW3dpKAJIHLPX9Us1H-9">
          <mxGeometry width="50" height="50" relative="1" as="geometry">
            <mxPoint x="150" y="460" as="sourcePoint" />
            <mxPoint x="200" y="410" as="targetPoint" />
            <Array as="points">
              <mxPoint x="140" y="470" />
              <mxPoint x="140" y="510" />
            </Array>
          </mxGeometry>
        </mxCell>
        <mxCell id="fUkW3dpKAJIHLPX9Us1H-12" value="context" style="rounded=0;whiteSpace=wrap;html=1;" vertex="1" parent="1">
          <mxGeometry x="40" y="540" width="80" height="20" as="geometry" />
        </mxCell>
        <mxCell id="fUkW3dpKAJIHLPX9Us1H-16" value="shellcode" style="rounded=0;whiteSpace=wrap;html=1;" vertex="1" parent="1">
          <mxGeometry x="160" y="380" width="120" height="20" as="geometry" />
        </mxCell>
        <mxCell id="fUkW3dpKAJIHLPX9Us1H-17" value="shellcode file" style="rounded=0;whiteSpace=wrap;html=1;" vertex="1" parent="1">
          <mxGeometry x="160" y="420" width="120" height="20" as="geometry" />
        </mxCell>
        <mxCell id="fUkW3dpKAJIHLPX9Us1H-19" value="dll file" style="rounded=0;whiteSpace=wrap;html=1;" vertex="1" parent="1">
          <mxGeometry x="160" y="340" width="120" height="20" as="geometry" />
        </mxCell>
        <mxCell id="fUkW3dpKAJIHLPX9Us1H-21" value="" style="endArrow=classic;html=1;rounded=0;exitX=1;exitY=0.5;exitDx=0;exitDy=0;entryX=0;entryY=0.5;entryDx=0;entryDy=0;" edge="1" parent="1" source="fUkW3dpKAJIHLPX9Us1H-1" target="fUkW3dpKAJIHLPX9Us1H-16">
          <mxGeometry width="50" height="50" relative="1" as="geometry">
            <mxPoint x="150" y="460" as="sourcePoint" />
            <mxPoint x="200" y="410" as="targetPoint" />
            <Array as="points">
              <mxPoint x="140" y="380" />
              <mxPoint x="140" y="390" />
            </Array>
          </mxGeometry>
        </mxCell>
        <mxCell id="fUkW3dpKAJIHLPX9Us1H-22" value="" style="endArrow=classic;html=1;rounded=0;entryX=0;entryY=0.5;entryDx=0;entryDy=0;" edge="1" parent="1" target="fUkW3dpKAJIHLPX9Us1H-17">
          <mxGeometry width="50" height="50" relative="1" as="geometry">
            <mxPoint x="140" y="380" as="sourcePoint" />
            <mxPoint x="200" y="410" as="targetPoint" />
            <Array as="points">
              <mxPoint x="140" y="430" />
            </Array>
          </mxGeometry>
        </mxCell>
        <mxCell id="fUkW3dpKAJIHLPX9Us1H-24" value="shellcode" style="rounded=0;whiteSpace=wrap;html=1;" vertex="1" parent="1">
          <mxGeometry x="160" y="540" width="120" height="20" as="geometry" />
        </mxCell>
        <mxCell id="fUkW3dpKAJIHLPX9Us1H-25" value="shellcode file" style="rounded=0;whiteSpace=wrap;html=1;" vertex="1" parent="1">
          <mxGeometry x="160" y="585" width="120" height="20" as="geometry" />
        </mxCell>
        <mxCell id="fUkW3dpKAJIHLPX9Us1H-28" value="" style="endArrow=classic;html=1;rounded=0;exitX=1;exitY=0.5;exitDx=0;exitDy=0;" edge="1" parent="1" source="fUkW3dpKAJIHLPX9Us1H-12" target="fUkW3dpKAJIHLPX9Us1H-24">
          <mxGeometry width="50" height="50" relative="1" as="geometry">
            <mxPoint x="170" y="460" as="sourcePoint" />
            <mxPoint x="220" y="410" as="targetPoint" />
          </mxGeometry>
        </mxCell>
        <mxCell id="fUkW3dpKAJIHLPX9Us1H-29" value="" style="endArrow=classic;html=1;rounded=0;exitX=1;exitY=0.5;exitDx=0;exitDy=0;entryX=0;entryY=0.5;entryDx=0;entryDy=0;" edge="1" parent="1" source="fUkW3dpKAJIHLPX9Us1H-12" target="fUkW3dpKAJIHLPX9Us1H-25">
          <mxGeometry width="50" height="50" relative="1" as="geometry">
            <mxPoint x="170" y="460" as="sourcePoint" />
            <mxPoint x="220" y="410" as="targetPoint" />
            <Array as="points">
              <mxPoint x="140" y="550" />
              <mxPoint x="140" y="595" />
            </Array>
          </mxGeometry>
        </mxCell>
      </root>
    </mxGraphModel>
  </diagram>
</mxfile>
